<?xml version="1.0" encoding="UTF-8" standalone="no"?>
<!-- Created with Inkscape (http://www.inkscape.org/) -->

<svg
   xmlns:dc="http://purl.org/dc/elements/1.1/"
   xmlns:cc="http://creativecommons.org/ns#"
   xmlns:rdf="http://www.w3.org/1999/02/22-rdf-syntax-ns#"
   xmlns:svg="http://www.w3.org/2000/svg"
   xmlns="http://www.w3.org/2000/svg"
   xmlns:sodipodi="http://sodipodi.sourceforge.net/DTD/sodipodi-0.dtd"
   xmlns:inkscape="http://www.inkscape.org/namespaces/inkscape"
   width="744.09448819"
   height="1052.3622047"
   id="svg2"
   version="1.1"
   inkscape:version="0.92.2 (5c3e80d, 2017-08-06)"
   sodipodi:docname="cartes.svg">
  <defs
     id="defs4" />
  <sodipodi:namedview
     id="base"
     pagecolor="#ffffff"
     bordercolor="#666666"
     borderopacity="1.0"
     inkscape:pageopacity="0.0"
     inkscape:pageshadow="2"
     inkscape:zoom="0.061871845"
     inkscape:cx="-5237.2265"
     inkscape:cy="-4489.3945"
     inkscape:document-units="px"
     inkscape:current-layer="layer1"
     showgrid="false"
     inkscape:window-width="1920"
     inkscape:window-height="1017"
     inkscape:window-x="-8"
     inkscape:window-y="-8"
     inkscape:window-maximized="1" />
  <metadata
     id="metadata7">
    <rdf:RDF>
      <cc:Work
         rdf:about="">
        <dc:format>image/svg+xml</dc:format>
        <dc:type
           rdf:resource="http://purl.org/dc/dcmitype/StillImage" />
        <dc:title />
      </cc:Work>
    </rdf:RDF>
  </metadata>
  <g
     inkscape:label="Layer 1"
     inkscape:groupmode="layer"
     id="layer1"
     style="display:inline">
    <g
       id="g3016"
       transform="translate(61.142244,262.07536)" />
    <g
       id="g3018"
       transform="translate(61.142244,262.07536)" />
    <g
       id="g3020"
       transform="translate(61.142244,262.07536)" />
    <g
       id="g3022"
       transform="translate(61.142244,262.07536)" />
    <g
       id="g3024"
       transform="translate(61.142244,262.07536)" />
    <g
       id="g3026"
       transform="translate(61.142244,262.07536)" />
    <g
       id="g3028"
       transform="translate(61.142244,262.07536)" />
    <g
       id="g3030"
       transform="translate(61.142244,262.07536)" />
    <g
       id="g3032"
       transform="translate(61.142244,262.07536)" />
    <g
       id="g3034"
       transform="translate(61.142244,262.07536)" />
    <g
       id="g3036"
       transform="translate(61.142244,262.07536)" />
    <g
       id="g3038"
       transform="translate(61.142244,262.07536)" />
    <g
       id="g3040"
       transform="translate(61.142244,262.07536)" />
    <g
       id="g3042"
       transform="translate(61.142244,262.07536)" />
    <g
       id="g3044"
       transform="translate(61.142244,262.07536)" />
    <flowRoot
       xml:space="preserve"
       id="flowRoot3069"
       style="fill:black;fill-opacity:1;stroke:none;font-family:sans-serif;font-style:normal;font-weight:normal;font-size:40px;line-height:1.25;letter-spacing:0px;word-spacing:0px"><flowRegion
         id="flowRegion3071"><rect
           id="rect3073"
           width="402.85715"
           height="297.14285"
           x="4980"
           y="2652.3623" /></flowRegion><flowPara
         id="flowPara3075" /></flowRoot>    <text
       xml:space="preserve"
       style="font-style:normal;font-weight:normal;font-size:40px;line-height:1.25;font-family:sans-serif;letter-spacing:0px;word-spacing:0px;fill:#000000;fill-opacity:1;stroke:none"
       x="-1026.3151"
       y="2345.3574"
       id="text1938"><tspan
         sodipodi:role="line"
         id="tspan1936"
         x="-1026.3151"
         y="2345.3574"
         style="font-style:normal;font-variant:normal;font-weight:normal;font-stretch:normal;font-size:192px;font-family:Bariol;-inkscape-font-specification:Bariol">36</tspan></text>
    <text
       id="text1942"
       y="2967.6113"
       x="-1018.2338"
       style="font-style:normal;font-weight:normal;font-size:40px;line-height:1.25;font-family:sans-serif;letter-spacing:0px;word-spacing:0px;fill:#000000;fill-opacity:1;stroke:none"
       xml:space="preserve"><tspan
         style="font-style:normal;font-variant:normal;font-weight:normal;font-stretch:normal;font-size:192px;font-family:Bariol;-inkscape-font-specification:Bariol"
         y="2967.6113"
         x="-1018.2338"
         id="tspan1940"
         sodipodi:role="line">48</tspan></text>
    <text
       inkscape:transform-center-y="-727.30981"
       inkscape:transform-center-x="32.324881"
       id="text1950"
       y="3719.1648"
       x="-1010.1526"
       style="font-style:normal;font-weight:normal;font-size:40px;line-height:1.25;font-family:sans-serif;letter-spacing:0px;word-spacing:0px;fill:#000000;fill-opacity:1;stroke:none"
       xml:space="preserve"><tspan
         style="font-style:normal;font-variant:normal;font-weight:normal;font-stretch:normal;font-size:192px;font-family:Bariol;-inkscape-font-specification:Bariol"
         y="3719.1648"
         x="-1010.1526"
         id="tspan1948"
         sodipodi:role="line">72</tspan></text>
    <text
       xml:space="preserve"
       style="font-style:normal;font-weight:normal;font-size:40px;line-height:1.25;font-family:sans-serif;letter-spacing:0px;word-spacing:0px;fill:#000000;fill-opacity:1;stroke:none"
       x="-1026.3151"
       y="4850.5356"
       id="text1954"
       inkscape:transform-center-x="32.324881"
       inkscape:transform-center-y="-727.30981"><tspan
         sodipodi:role="line"
         id="tspan1952"
         x="-1026.3151"
         y="4850.5356"
         style="font-style:normal;font-variant:normal;font-weight:normal;font-stretch:normal;font-size:192px;font-family:Bariol;-inkscape-font-specification:Bariol">96</tspan></text>
    <text
       id="text2648"
       y="1706.941"
       x="-4525.4834"
       style="font-style:normal;font-weight:normal;font-size:40px;line-height:1.25;font-family:sans-serif;letter-spacing:0px;word-spacing:0px;fill:#000000;fill-opacity:1;stroke:none"
       xml:space="preserve"><tspan
         style="font-style:normal;font-variant:normal;font-weight:normal;font-stretch:normal;font-size:192px;font-family:Bariol;-inkscape-font-specification:Bariol"
         y="1706.941"
         x="-4525.4834"
         id="tspan2646"
         sodipodi:role="line">800x480</tspan></text>
    <text
       xml:space="preserve"
       style="font-style:normal;font-weight:normal;font-size:40px;line-height:1.25;font-family:sans-serif;letter-spacing:0px;word-spacing:0px;fill:#000000;fill-opacity:1;stroke:none"
       x="-3329.4629"
       y="1747.3472"
       id="text2652"><tspan
         sodipodi:role="line"
         id="tspan2650"
         x="-3329.4629"
         y="1747.3472"
         style="font-style:normal;font-variant:normal;font-weight:normal;font-stretch:normal;font-size:192px;font-family:Bariol;-inkscape-font-specification:Bariol">480x800</tspan></text>
    <text
       xml:space="preserve"
       style="font-style:normal;font-weight:normal;font-size:40px;line-height:1.25;font-family:sans-serif;letter-spacing:0px;word-spacing:0px;fill:#000000;fill-opacity:1;stroke:none"
       x="-4363.8589"
       y="2951.449"
       id="text2656"><tspan
         sodipodi:role="line"
         id="tspan2654"
         x="-4363.8589"
         y="2951.449"
         style="font-style:normal;font-variant:normal;font-weight:normal;font-stretch:normal;font-size:192px;font-family:Bariol;-inkscape-font-specification:Bariol">320x200</tspan></text>
    <text
       id="text2660"
       y="2991.855"
       x="-3167.8384"
       style="font-style:normal;font-weight:normal;font-size:40px;line-height:1.25;font-family:sans-serif;letter-spacing:0px;word-spacing:0px;fill:#000000;fill-opacity:1;stroke:none"
       xml:space="preserve"><tspan
         style="font-style:normal;font-variant:normal;font-weight:normal;font-stretch:normal;font-size:192px;font-family:Bariol;-inkscape-font-specification:Bariol"
         y="2991.855"
         x="-3167.8384"
         id="tspan2658"
         sodipodi:role="line">200x320</tspan></text>
    <text
       id="text2664"
       y="3743.4084"
       x="-4420.4272"
       style="font-style:normal;font-weight:normal;font-size:40px;line-height:1.25;font-family:sans-serif;letter-spacing:0px;word-spacing:0px;fill:#000000;fill-opacity:1;stroke:none"
       xml:space="preserve"><tspan
         style="font-style:normal;font-variant:normal;font-weight:normal;font-stretch:normal;font-size:192px;font-family:Bariol;-inkscape-font-specification:Bariol"
         y="3743.4084"
         x="-4420.4272"
         id="tspan2662"
         sodipodi:role="line">480x320</tspan></text>
    <text
       xml:space="preserve"
       style="font-style:normal;font-weight:normal;font-size:40px;line-height:1.25;font-family:sans-serif;letter-spacing:0px;word-spacing:0px;fill:#000000;fill-opacity:1;stroke:none"
       x="-3224.407"
       y="3783.8145"
       id="text2668"><tspan
         sodipodi:role="line"
         id="tspan2666"
         x="-3224.407"
         y="3783.8145"
         style="font-style:normal;font-variant:normal;font-weight:normal;font-stretch:normal;font-size:192px;font-family:Bariol;-inkscape-font-specification:Bariol">320x480</tspan></text>
    <text
       xml:space="preserve"
       style="font-style:normal;font-weight:normal;font-size:40px;line-height:1.25;font-family:sans-serif;letter-spacing:0px;word-spacing:0px;fill:#000000;fill-opacity:1;stroke:none"
       x="-4323.4526"
       y="4721.2363"
       id="text2672"><tspan
         sodipodi:role="line"
         id="tspan2670"
         x="-4323.4526"
         y="4721.2363"
         style="font-style:normal;font-variant:normal;font-weight:normal;font-stretch:normal;font-size:192px;font-family:Bariol;-inkscape-font-specification:Bariol">1280x720</tspan></text>
    <text
       id="text2676"
       y="4761.6421"
       x="-3127.4324"
       style="font-style:normal;font-weight:normal;font-size:40px;line-height:1.25;font-family:sans-serif;letter-spacing:0px;word-spacing:0px;fill:#000000;fill-opacity:1;stroke:none"
       xml:space="preserve"><tspan
         style="font-style:normal;font-variant:normal;font-weight:normal;font-stretch:normal;font-size:192px;font-family:Bariol;-inkscape-font-specification:Bariol"
         y="4761.6421"
         x="-3127.4324"
         id="tspan2674"
         sodipodi:role="line">720x1280</tspan></text>
    <text
       inkscape:transform-center-y="-727.30981"
       inkscape:transform-center-x="32.324881"
       id="text2026"
       y="6373.8457"
       x="-1014.1932"
       style="font-style:normal;font-weight:normal;font-size:40px;line-height:1.25;font-family:sans-serif;letter-spacing:0px;word-spacing:0px;fill:#000000;fill-opacity:1;stroke:none"
       xml:space="preserve"><tspan
         style="font-style:normal;font-variant:normal;font-weight:normal;font-stretch:normal;font-size:192px;font-family:Bariol;-inkscape-font-specification:Bariol"
         y="6373.8457"
         x="-1014.1932"
         id="tspan2024"
         sodipodi:role="line">128</tspan></text>
    <text
       id="text2044"
       y="7601.2363"
       x="-3820.5955"
       style="font-style:normal;font-weight:normal;font-size:40px;line-height:1.25;font-family:sans-serif;letter-spacing:0px;word-spacing:0px;fill:#000000;fill-opacity:1;stroke:none"
       xml:space="preserve"><tspan
         style="font-style:normal;font-variant:normal;font-weight:normal;font-stretch:normal;font-size:192px;font-family:Bariol;-inkscape-font-specification:Bariol"
         y="7601.2363"
         x="-3820.5955"
         id="tspan2042"
         sodipodi:role="line">1024x500</tspan></text>
    <text
       xml:space="preserve"
       style="font-style:normal;font-weight:normal;font-size:40px;line-height:1.25;font-family:sans-serif;letter-spacing:0px;word-spacing:0px;fill:#000000;fill-opacity:1;stroke:none"
       x="-2615.522"
       y="7574.1616"
       id="text2064"
       inkscape:transform-center-x="32.324881"
       inkscape:transform-center-y="-727.30981"><tspan
         sodipodi:role="line"
         id="tspan2062"
         x="-2615.522"
         y="7574.1616"
         style="font-style:normal;font-variant:normal;font-weight:normal;font-stretch:normal;font-size:192px;font-family:Bariol;-inkscape-font-specification:Bariol">512</tspan></text>
    <path
       inkscape:connector-curvature="0"
       style="fill:none"
       d="m -7769.9713,8281.1354 h 24 v 24 h -24 z"
       id="path2-3" />
    <g
       id="g2406"
       inkscape:export-filename="F:\GitHub\App-QDC\res\screen\android\screen-hdpi-portrait.png"
       inkscape:export-xdpi="95.999985"
       inkscape:export-ydpi="95.999985">
      <g
         id="g2039"
         transform="matrix(1.2631579,0,0,1.2631579,-5030.7015,-1026.7935)">
        <circle
           style="fill:#2c5aa0;fill-opacity:0.9898477;stroke:none;stroke-width:5.57518053;stroke-miterlimit:4;stroke-dasharray:none;stroke-opacity:1"
           id="circle2033"
           cx="1687.573"
           cy="2569.3979"
           inkscape:export-xdpi="315.61737"
           inkscape:export-ydpi="315.61737"
           r="102.5" />
        <text
           xml:space="preserve"
           style="font-style:normal;font-weight:normal;font-size:51.25px;line-height:1.25;font-family:sans-serif;letter-spacing:0px;word-spacing:0px;fill:#000000;fill-opacity:1;stroke:none;stroke-width:1.28125"
           x="1662.1029"
           y="2610.7874"
           id="text2037"
           inkscape:export-xdpi="315.61737"
           inkscape:export-ydpi="315.61737"><tspan
             sodipodi:role="line"
             id="tspan2035"
             x="1662.1029"
             y="2610.7874"
             style="font-style:normal;font-variant:normal;font-weight:normal;font-stretch:normal;font-size:122.99999237px;font-family:Bariol;-inkscape-font-specification:Bariol;fill:#ffffff;stroke-width:1.28125">?</tspan></text>
      </g>
      <g
         transform="matrix(0,2.1052632,-1.2631579,0,346.52498,-1334.0235)"
         id="g2045">
        <g
           id="g2043">
          <rect
             ry="0"
             y="2379.3979"
             x="1497.573"
             height="380"
             width="380"
             id="rect2041"
             style="fill:#f9f9f9;fill-opacity:1;stroke:none;stroke-width:0.73211336;stroke-miterlimit:4;stroke-dasharray:none;stroke-dashoffset:0;stroke-opacity:1" />
        </g>
      </g>
      <g
         transform="matrix(0.72222215,0,0,0.72222215,-2636.9105,580.56627)"
         id="g2062">
        <g
           id="g1859"
           transform="matrix(0.94736842,0,0,0.94736842,-1961.6885,-165.89551)"
           style="fill:none;stroke:none">
          <g
             id="g1857"
             style="fill:none;stroke:none">
            <rect
               style="fill:none;fill-opacity:1;stroke:none;stroke-width:0.73211336;stroke-miterlimit:4;stroke-dasharray:none;stroke-dashoffset:0;stroke-opacity:1"
               id="rect1855"
               width="380"
               height="380"
               x="1497.573"
               y="2379.3979"
               ry="0" />
          </g>
        </g>
        <path
           inkscape:export-ydpi="38.26561"
           inkscape:export-xdpi="38.26561"
           mask="none"
           clip-path="none"
           style="fill:#6ab04c;fill-opacity:1;stroke-width:18.00000381"
           id="path2046"
           d="m -236.93505,2124.271 h -75.23998 c -7.56,-20.88 -27.36009,-36 -50.76003,-36 -23.40001,0 -43.20004,15.12 -50.76003,36 h -75.23997 c -19.79997,0 -36.00009,16.2 -36.00009,36 v 252.0001 c 0,19.8001 16.20012,35.9999 36.00009,35.9999 h 252.00001 c 19.80001,0 35.99993,-16.1998 35.99993,-35.9999 V 2160.271 c 0,-19.8 -16.19992,-36 -35.99993,-36 z m -126.00001,0 c 9.89997,0 18.00005,8.1 18.00005,18.0001 0,9.8999 -8.10008,17.9999 -18.00005,17.9999 -9.90003,0 -18.00001,-8.1 -18.00001,-17.9999 0,-9.9001 8.09998,-18.0001 18.00001,-18.0001 z m -36.00004,252.0001 -72.00003,-72.0001 25.37998,-25.3799 46.62005,46.4398 118.61997,-118.6199 25.38007,25.5601 z"
           inkscape:connector-curvature="0" />
      </g>
    </g>
    <g
       id="g2072"
       transform="matrix(1.3333332,0,0,1.3333332,116.32855,-137.26753)"
       inkscape:export-filename="F:\GitHub\App-QDC\res\icon\android\icon-48-mdpi.png"
       inkscape:export-xdpi="9.6000023"
       inkscape:export-ydpi="9.6000023">
      <g
         id="g2068"
         transform="matrix(0.94736842,0,0,0.94736842,-1961.6885,-165.89551)"
         style="fill:none;stroke:none">
        <g
           id="g2066"
           style="fill:none;stroke:none">
          <rect
             style="fill:none;fill-opacity:1;stroke:none;stroke-width:0.73211336;stroke-miterlimit:4;stroke-dasharray:none;stroke-dashoffset:0;stroke-opacity:1"
             id="rect2064"
             width="380"
             height="380"
             x="1497.573"
             y="2379.3979"
             ry="0" />
        </g>
      </g>
      <path
         inkscape:export-ydpi="38.26561"
         inkscape:export-xdpi="38.26561"
         mask="none"
         clip-path="none"
         style="fill:#6ab04c;fill-opacity:1;stroke-width:18.00000381"
         id="path2070"
         d="m -236.93505,2124.271 h -75.23998 c -7.56,-20.88 -27.36009,-36 -50.76003,-36 -23.40001,0 -43.20004,15.12 -50.76003,36 h -75.23997 c -19.79997,0 -36.00009,16.2 -36.00009,36 v 252.0001 c 0,19.8001 16.20012,35.9999 36.00009,35.9999 h 252.00001 c 19.80001,0 35.99993,-16.1998 35.99993,-35.9999 V 2160.271 c 0,-19.8 -16.19992,-36 -35.99993,-36 z m -126.00001,0 c 9.89997,0 18.00005,8.1 18.00005,18.0001 0,9.8999 -8.10008,17.9999 -18.00005,17.9999 -9.90003,0 -18.00001,-8.1 -18.00001,-17.9999 0,-9.9001 8.09998,-18.0001 18.00001,-18.0001 z m -36.00004,252.0001 -72.00003,-72.0001 25.37998,-25.3799 46.62005,46.4398 118.61997,-118.6199 25.38007,25.5601 z"
         inkscape:connector-curvature="0" />
    </g>
    <g
       transform="matrix(1.9999998,0,0,1.9999998,520.71173,-832.02647)"
       id="g2082"
       inkscape:export-filename="F:\GitHub\App-QDC\res\icon\android\icon-72-hdpi.png"
       inkscape:export-xdpi="9.5999966"
       inkscape:export-ydpi="9.5999966">
      <g
         style="fill:none;stroke:none"
         transform="matrix(0.94736842,0,0,0.94736842,-1961.6885,-165.89551)"
         id="g2078">
        <g
           style="fill:none;stroke:none"
           id="g2076">
          <rect
             ry="0"
             y="2379.3979"
             x="1497.573"
             height="380"
             width="380"
             id="rect2074"
             style="fill:none;fill-opacity:1;stroke:none;stroke-width:0.73211336;stroke-miterlimit:4;stroke-dasharray:none;stroke-dashoffset:0;stroke-opacity:1" />
        </g>
      </g>
      <path
         inkscape:connector-curvature="0"
         d="m -236.93505,2124.271 h -75.23998 c -7.56,-20.88 -27.36009,-36 -50.76003,-36 -23.40001,0 -43.20004,15.12 -50.76003,36 h -75.23997 c -19.79997,0 -36.00009,16.2 -36.00009,36 v 252.0001 c 0,19.8001 16.20012,35.9999 36.00009,35.9999 h 252.00001 c 19.80001,0 35.99993,-16.1998 35.99993,-35.9999 V 2160.271 c 0,-19.8 -16.19992,-36 -35.99993,-36 z m -126.00001,0 c 9.89997,0 18.00005,8.1 18.00005,18.0001 0,9.8999 -8.10008,17.9999 -18.00005,17.9999 -9.90003,0 -18.00001,-8.1 -18.00001,-17.9999 0,-9.9001 8.09998,-18.0001 18.00001,-18.0001 z m -36.00004,252.0001 -72.00003,-72.0001 25.37998,-25.3799 46.62005,46.4398 118.61997,-118.6199 25.38007,25.5601 z"
         id="path2080"
         style="fill:#6ab04c;fill-opacity:1;stroke-width:18.00000381"
         clip-path="none"
         mask="none"
         inkscape:export-xdpi="38.26561"
         inkscape:export-ydpi="38.26561" />
    </g>
    <g
       id="g2092"
       transform="matrix(2.6666664,0,0,2.6666664,882.66836,-1322.7347)"
       inkscape:export-filename="F:\GitHub\App-QDC\res\icon\android\icon-96-xhdpi.png"
       inkscape:export-xdpi="9.5999966"
       inkscape:export-ydpi="9.5999966">
      <g
         id="g2088"
         transform="matrix(0.94736842,0,0,0.94736842,-1961.6885,-165.89551)"
         style="fill:none;stroke:none">
        <g
           id="g2086"
           style="fill:none;stroke:none">
          <rect
             style="fill:none;fill-opacity:1;stroke:none;stroke-width:0.73211336;stroke-miterlimit:4;stroke-dasharray:none;stroke-dashoffset:0;stroke-opacity:1"
             id="rect2084"
             width="380"
             height="380"
             x="1497.573"
             y="2379.3979"
             ry="0" />
        </g>
      </g>
      <path
         inkscape:export-ydpi="38.26561"
         inkscape:export-xdpi="38.26561"
         mask="none"
         clip-path="none"
         style="fill:#6ab04c;fill-opacity:1;stroke-width:18.00000381"
         id="path2090"
         d="m -236.93505,2124.271 h -75.23998 c -7.56,-20.88 -27.36009,-36 -50.76003,-36 -23.40001,0 -43.20004,15.12 -50.76003,36 h -75.23997 c -19.79997,0 -36.00009,16.2 -36.00009,36 v 252.0001 c 0,19.8001 16.20012,35.9999 36.00009,35.9999 h 252.00001 c 19.80001,0 35.99993,-16.1998 35.99993,-35.9999 V 2160.271 c 0,-19.8 -16.19992,-36 -35.99993,-36 z m -126.00001,0 c 9.89997,0 18.00005,8.1 18.00005,18.0001 0,9.8999 -8.10008,17.9999 -18.00005,17.9999 -9.90003,0 -18.00001,-8.1 -18.00001,-17.9999 0,-9.9001 8.09998,-18.0001 18.00001,-18.0001 z m -36.00004,252.0001 -72.00003,-72.0001 25.37998,-25.3799 46.62005,46.4398 118.61997,-118.6199 25.38007,25.5601 z"
         inkscape:connector-curvature="0" />
    </g>
    <g
       transform="matrix(3.5555552,0,0,3.5555552,1405.6835,-1915.0562)"
       id="g2102"
       inkscape:export-xdpi="9.6000004"
       inkscape:export-ydpi="9.6000004">
      <g
         style="fill:none;stroke:none"
         transform="matrix(0.94736842,0,0,0.94736842,-1961.6885,-165.89551)"
         id="g2098">
        <g
           style="fill:none;stroke:none"
           id="g2096">
          <rect
             ry="0"
             y="2379.3979"
             x="1497.573"
             height="380"
             width="380"
             id="rect2094"
             style="fill:none;fill-opacity:1;stroke:none;stroke-width:0.73211336;stroke-miterlimit:4;stroke-dasharray:none;stroke-dashoffset:0;stroke-opacity:1" />
        </g>
      </g>
      <path
         inkscape:connector-curvature="0"
         d="m -236.93505,2124.271 h -75.23998 c -7.56,-20.88 -27.36009,-36 -50.76003,-36 -23.40001,0 -43.20004,15.12 -50.76003,36 h -75.23997 c -19.79997,0 -36.00009,16.2 -36.00009,36 v 252.0001 c 0,19.8001 16.20012,35.9999 36.00009,35.9999 h 252.00001 c 19.80001,0 35.99993,-16.1998 35.99993,-35.9999 V 2160.271 c 0,-19.8 -16.19992,-36 -35.99993,-36 z m -126.00001,0 c 9.89997,0 18.00005,8.1 18.00005,18.0001 0,9.8999 -8.10008,17.9999 -18.00005,17.9999 -9.90003,0 -18.00001,-8.1 -18.00001,-17.9999 0,-9.9001 8.09998,-18.0001 18.00001,-18.0001 z m -36.00004,252.0001 -72.00003,-72.0001 25.37998,-25.3799 46.62005,46.4398 118.61997,-118.6199 25.38007,25.5601 z"
         id="path2100"
         style="fill:#6ab04c;fill-opacity:1;stroke-width:18.00000381"
         clip-path="none"
         mask="none"
         inkscape:export-xdpi="38.26561"
         inkscape:export-ydpi="38.26561" />
    </g>
    <g
       id="g2392"
       inkscape:export-filename="F:\GitHub\App-QDC\res\screen\android\screen-hdpi-landscape.png"
       inkscape:export-xdpi="95.999985"
       inkscape:export-ydpi="95.999985">
      <g
         transform="matrix(2.1052632,0,0,1.2631579,-7695.9243,-1181.9748)"
         id="g1961">
        <g
           id="g1958">
          <rect
             ry="0"
             y="2379.3979"
             x="1497.573"
             height="380"
             width="380"
             id="rect1956"
             style="fill:#f9f9f9;fill-opacity:1;stroke:none;stroke-width:0.73211336;stroke-miterlimit:4;stroke-dasharray:none;stroke-dashoffset:0;stroke-opacity:1" />
        </g>
      </g>
      <g
         id="g2134"
         transform="matrix(0.72222215,0,0,0.72222215,-3881.0192,425.38497)">
        <g
           style="fill:none;stroke:none"
           transform="matrix(0.94736842,0,0,0.94736842,-1961.6885,-165.89551)"
           id="g2130">
          <g
             style="fill:none;stroke:none"
             id="g2128">
            <rect
               ry="0"
               y="2379.3979"
               x="1497.573"
               height="380"
               width="380"
               id="rect2126"
               style="fill:none;fill-opacity:1;stroke:none;stroke-width:0.73211336;stroke-miterlimit:4;stroke-dasharray:none;stroke-dashoffset:0;stroke-opacity:1" />
          </g>
        </g>
        <path
           inkscape:connector-curvature="0"
           d="m -236.93505,2124.271 h -75.23998 c -7.56,-20.88 -27.36009,-36 -50.76003,-36 -23.40001,0 -43.20004,15.12 -50.76003,36 h -75.23997 c -19.79997,0 -36.00009,16.2 -36.00009,36 v 252.0001 c 0,19.8001 16.20012,35.9999 36.00009,35.9999 h 252.00001 c 19.80001,0 35.99993,-16.1998 35.99993,-35.9999 V 2160.271 c 0,-19.8 -16.19992,-36 -35.99993,-36 z m -126.00001,0 c 9.89997,0 18.00005,8.1 18.00005,18.0001 0,9.8999 -8.10008,17.9999 -18.00005,17.9999 -9.90003,0 -18.00001,-8.1 -18.00001,-17.9999 0,-9.9001 8.09998,-18.0001 18.00001,-18.0001 z m -36.00004,252.0001 -72.00003,-72.0001 25.37998,-25.3799 46.62005,46.4398 118.61997,-118.6199 25.38007,25.5601 z"
           id="path2132"
           style="fill:#6ab04c;fill-opacity:1;stroke-width:18.00000381"
           clip-path="none"
           mask="none"
           inkscape:export-xdpi="38.26561"
           inkscape:export-ydpi="38.26561" />
      </g>
    </g>
    <g
       transform="translate(-70.364098,10.2513)"
       id="g2144"
       inkscape:export-filename="F:\GitHub\App-QDC\res\icon\android\icon-36-ldpi.png"
       inkscape:export-xdpi="9.5999966"
       inkscape:export-ydpi="9.5999966">
      <g
         style="fill:none;stroke:none"
         transform="matrix(0.94736842,0,0,0.94736842,-1961.6885,-165.89551)"
         id="g2140">
        <g
           style="fill:none;stroke:none"
           id="g2138">
          <rect
             ry="0"
             y="2379.3979"
             x="1497.573"
             height="380"
             width="380"
             id="rect2136"
             style="fill:none;fill-opacity:1;stroke:none;stroke-width:0.73211336;stroke-miterlimit:4;stroke-dasharray:none;stroke-dashoffset:0;stroke-opacity:1" />
        </g>
      </g>
      <path
         inkscape:connector-curvature="0"
         d="m -236.93505,2124.271 h -75.23998 c -7.56,-20.88 -27.36009,-36 -50.76003,-36 -23.40001,0 -43.20004,15.12 -50.76003,36 h -75.23997 c -19.79997,0 -36.00009,16.2 -36.00009,36 v 252.0001 c 0,19.8001 16.20012,35.9999 36.00009,35.9999 h 252.00001 c 19.80001,0 35.99993,-16.1998 35.99993,-35.9999 V 2160.271 c 0,-19.8 -16.19992,-36 -35.99993,-36 z m -126.00001,0 c 9.89997,0 18.00005,8.1 18.00005,18.0001 0,9.8999 -8.10008,17.9999 -18.00005,17.9999 -9.90003,0 -18.00001,-8.1 -18.00001,-17.9999 0,-9.9001 8.09998,-18.0001 18.00001,-18.0001 z m -36.00004,252.0001 -72.00003,-72.0001 25.37998,-25.3799 46.62005,46.4398 118.61997,-118.6199 25.38007,25.5601 z"
         id="path2142"
         style="fill:#6ab04c;fill-opacity:1;stroke-width:18.00000381"
         clip-path="none"
         mask="none"
         inkscape:export-xdpi="38.26561"
         inkscape:export-ydpi="38.26561" />
    </g>
    <g
       id="g2220"
       inkscape:export-filename="F:\GitHub\App-QDC\res\screen\android\screen-ldpi-landscape.png"
       inkscape:export-xdpi="95.999985"
       inkscape:export-ydpi="95.999985">
      <g
         transform="matrix(0.84210526,0,0,0.52631578,-5557.0417,1969.6328)"
         id="g2061">
        <g
           id="g2059">
          <rect
             ry="0"
             y="2379.3979"
             x="1497.573"
             height="380"
             width="380"
             id="rect2057"
             style="fill:#f9f9f9;fill-opacity:1;stroke:none;stroke-width:0.73211336;stroke-miterlimit:4;stroke-dasharray:none;stroke-dashoffset:0;stroke-opacity:1" />
        </g>
      </g>
      <g
         transform="matrix(0.30555553,0,0,0.30555553,-4025.0308,2628.8647)"
         id="g2154">
        <g
           style="fill:none;stroke:none"
           transform="matrix(0.94736842,0,0,0.94736842,-1961.6885,-165.89551)"
           id="g2150">
          <g
             style="fill:none;stroke:none"
             id="g2148">
            <rect
               ry="0"
               y="2379.3979"
               x="1497.573"
               height="380"
               width="380"
               id="rect2146"
               style="fill:none;fill-opacity:1;stroke:none;stroke-width:0.73211336;stroke-miterlimit:4;stroke-dasharray:none;stroke-dashoffset:0;stroke-opacity:1" />
          </g>
        </g>
        <path
           inkscape:connector-curvature="0"
           d="m -236.93505,2124.271 h -75.23998 c -7.56,-20.88 -27.36009,-36 -50.76003,-36 -23.40001,0 -43.20004,15.12 -50.76003,36 h -75.23997 c -19.79997,0 -36.00009,16.2 -36.00009,36 v 252.0001 c 0,19.8001 16.20012,35.9999 36.00009,35.9999 h 252.00001 c 19.80001,0 35.99993,-16.1998 35.99993,-35.9999 V 2160.271 c 0,-19.8 -16.19992,-36 -35.99993,-36 z m -126.00001,0 c 9.89997,0 18.00005,8.1 18.00005,18.0001 0,9.8999 -8.10008,17.9999 -18.00005,17.9999 -9.90003,0 -18.00001,-8.1 -18.00001,-17.9999 0,-9.9001 8.09998,-18.0001 18.00001,-18.0001 z m -36.00004,252.0001 -72.00003,-72.0001 25.37998,-25.3799 46.62005,46.4398 118.61997,-118.6199 25.38007,25.5601 z"
           id="path2152"
           style="fill:#6ab04c;fill-opacity:1;stroke-width:18.00000381"
           clip-path="none"
           mask="none"
           inkscape:export-xdpi="38.26561"
           inkscape:export-ydpi="38.26561" />
      </g>
    </g>
    <g
       id="g2210"
       inkscape:export-filename="F:\GitHub\App-QDC\res\screen\android\screen-ldpi-portrait.png"
       inkscape:export-xdpi="95.999985"
       inkscape:export-ydpi="95.999985">
      <g
         id="g2323"
         transform="matrix(0.52631578,0,0,0.52631578,-3906.2894,1973.6735)">
        <circle
           style="fill:#2c5aa0;fill-opacity:0.9898477;stroke:none;stroke-width:5.57518053;stroke-miterlimit:4;stroke-dasharray:none;stroke-opacity:1"
           id="circle2317"
           cx="1687.573"
           cy="2569.3979"
           inkscape:export-xdpi="315.61737"
           inkscape:export-ydpi="315.61737"
           r="102.5" />
        <text
           xml:space="preserve"
           style="font-style:normal;font-weight:normal;font-size:51.25px;line-height:1.25;font-family:sans-serif;letter-spacing:0px;word-spacing:0px;fill:#000000;fill-opacity:1;stroke:none;stroke-width:1.28125"
           x="1662.1029"
           y="2610.7874"
           id="text2321"
           inkscape:export-xdpi="315.61737"
           inkscape:export-ydpi="315.61737"><tspan
             sodipodi:role="line"
             id="tspan2319"
             x="1662.1029"
             y="2610.7874"
             style="font-style:normal;font-variant:normal;font-weight:normal;font-stretch:normal;font-size:122.99999237px;font-family:Bariol;-inkscape-font-specification:Bariol;fill:#ffffff;stroke-width:1.28125">?</tspan></text>
      </g>
      <g
         transform="matrix(0,0.84210526,-0.52631578,0,-1665.7784,1904.8741)"
         id="g2329">
        <g
           id="g2327">
          <rect
             ry="0"
             y="2379.3979"
             x="1497.573"
             height="380"
             width="380"
             id="rect2325"
             style="fill:#f9f9f9;fill-opacity:1;stroke:none;stroke-width:0.73211336;stroke-miterlimit:4;stroke-dasharray:none;stroke-dashoffset:0;stroke-opacity:1" />
        </g>
      </g>
      <g
         id="g2186"
         transform="matrix(0.30555553,0,0,0.30555553,-2907.1963,2632.9054)">
        <g
           id="g2182"
           transform="matrix(0.94736842,0,0,0.94736842,-1961.6885,-165.89551)"
           style="fill:none;stroke:none">
          <g
             id="g2180"
             style="fill:none;stroke:none">
            <rect
               style="fill:none;fill-opacity:1;stroke:none;stroke-width:0.73211336;stroke-miterlimit:4;stroke-dasharray:none;stroke-dashoffset:0;stroke-opacity:1"
               id="rect2178"
               width="380"
               height="380"
               x="1497.573"
               y="2379.3979"
               ry="0" />
          </g>
        </g>
        <path
           inkscape:export-ydpi="38.26561"
           inkscape:export-xdpi="38.26561"
           mask="none"
           clip-path="none"
           style="fill:#6ab04c;fill-opacity:1;stroke-width:18.00000381"
           id="path2184"
           d="m -236.93505,2124.271 h -75.23998 c -7.56,-20.88 -27.36009,-36 -50.76003,-36 -23.40001,0 -43.20004,15.12 -50.76003,36 h -75.23997 c -19.79997,0 -36.00009,16.2 -36.00009,36 v 252.0001 c 0,19.8001 16.20012,35.9999 36.00009,35.9999 h 252.00001 c 19.80001,0 35.99993,-16.1998 35.99993,-35.9999 V 2160.271 c 0,-19.8 -16.19992,-36 -35.99993,-36 z m -126.00001,0 c 9.89997,0 18.00005,8.1 18.00005,18.0001 0,9.8999 -8.10008,17.9999 -18.00005,17.9999 -9.90003,0 -18.00001,-8.1 -18.00001,-17.9999 0,-9.9001 8.09998,-18.0001 18.00001,-18.0001 z m -36.00004,252.0001 -72.00003,-72.0001 25.37998,-25.3799 46.62005,46.4398 118.61997,-118.6199 25.38007,25.5601 z"
           inkscape:connector-curvature="0" />
      </g>
    </g>
    <g
       id="g2334"
       inkscape:export-filename="F:\GitHub\App-QDC\res\screen\android\screen-xhdpi-landscape.png"
       inkscape:export-xdpi="95.999985"
       inkscape:export-ydpi="95.999985">
      <g
         transform="matrix(3.3684211,0,0,1.8947368,-10117.765,392.51023)"
         id="g2181">
        <g
           id="g2179">
          <rect
             ry="0"
             y="2379.3979"
             x="1497.573"
             height="380"
             width="380"
             id="rect2177"
             style="fill:#f9f9f9;fill-opacity:1;stroke:none;stroke-width:0.73211336;stroke-miterlimit:4;stroke-dasharray:none;stroke-dashoffset:0;stroke-opacity:1" />
        </g>
      </g>
      <g
         transform="matrix(1.0833332,0,0,1.0833332,-4040.1288,2803.5498)"
         id="g2196">
        <g
           style="fill:none;stroke:none"
           transform="matrix(0.94736842,0,0,0.94736842,-1961.6885,-165.89551)"
           id="g2192">
          <g
             style="fill:none;stroke:none"
             id="g2190">
            <rect
               ry="0"
               y="2379.3979"
               x="1497.573"
               height="380"
               width="380"
               id="rect2188"
               style="fill:none;fill-opacity:1;stroke:none;stroke-width:0.73211336;stroke-miterlimit:4;stroke-dasharray:none;stroke-dashoffset:0;stroke-opacity:1" />
          </g>
        </g>
        <path
           inkscape:connector-curvature="0"
           d="m -236.93505,2124.271 h -75.23998 c -7.56,-20.88 -27.36009,-36 -50.76003,-36 -23.40001,0 -43.20004,15.12 -50.76003,36 h -75.23997 c -19.79997,0 -36.00009,16.2 -36.00009,36 v 252.0001 c 0,19.8001 16.20012,35.9999 36.00009,35.9999 h 252.00001 c 19.80001,0 35.99993,-16.1998 35.99993,-35.9999 V 2160.271 c 0,-19.8 -16.19992,-36 -35.99993,-36 z m -126.00001,0 c 9.89997,0 18.00005,8.1 18.00005,18.0001 0,9.8999 -8.10008,17.9999 -18.00005,17.9999 -9.90003,0 -18.00001,-8.1 -18.00001,-17.9999 0,-9.9001 8.09998,-18.0001 18.00001,-18.0001 z m -36.00004,252.0001 -72.00003,-72.0001 25.37998,-25.3799 46.62005,46.4398 118.61997,-118.6199 25.38007,25.5601 z"
           id="path2194"
           style="fill:#6ab04c;fill-opacity:1;stroke-width:18.00000381"
           clip-path="none"
           mask="none"
           inkscape:export-xdpi="38.26561"
           inkscape:export-ydpi="38.26561" />
      </g>
    </g>
    <g
       id="g2282"
       inkscape:export-filename="F:\GitHub\App-QDC\res\screen\android\screen-mdpi-landscape.png"
       inkscape:export-xdpi="95.999985"
       inkscape:export-ydpi="95.999985">
      <g
         id="g2091"
         transform="matrix(1.2631579,0,0,0.84210526,-6261.9541,1946.8044)">
        <g
           id="g2089">
          <rect
             style="fill:#f9f9f9;fill-opacity:1;stroke:none;stroke-width:0.73211336;stroke-miterlimit:4;stroke-dasharray:none;stroke-dashoffset:0;stroke-opacity:1"
             id="rect2087"
             width="380"
             height="380"
             x="1497.573"
             y="2379.3979"
             ry="0" />
        </g>
      </g>
      <g
         id="g2252"
         transform="matrix(0.47222218,0,0,0.47222218,-3958.8969,3039.3801)">
        <g
           id="g2248"
           transform="matrix(0.94736842,0,0,0.94736842,-1961.6885,-165.89551)"
           style="fill:none;stroke:none">
          <g
             id="g2246"
             style="fill:none;stroke:none">
            <rect
               style="fill:none;fill-opacity:1;stroke:none;stroke-width:0.73211336;stroke-miterlimit:4;stroke-dasharray:none;stroke-dashoffset:0;stroke-opacity:1"
               id="rect2244"
               width="380"
               height="380"
               x="1497.573"
               y="2379.3979"
               ry="0" />
          </g>
        </g>
        <path
           inkscape:export-ydpi="38.26561"
           inkscape:export-xdpi="38.26561"
           mask="none"
           clip-path="none"
           style="fill:#6ab04c;fill-opacity:1;stroke-width:18.00000381"
           id="path2250"
           d="m -236.93505,2124.271 h -75.23998 c -7.56,-20.88 -27.36009,-36 -50.76003,-36 -23.40001,0 -43.20004,15.12 -50.76003,36 h -75.23997 c -19.79997,0 -36.00009,16.2 -36.00009,36 v 252.0001 c 0,19.8001 16.20012,35.9999 36.00009,35.9999 h 252.00001 c 19.80001,0 35.99993,-16.1998 35.99993,-35.9999 V 2160.271 c 0,-19.8 -16.19992,-36 -35.99993,-36 z m -126.00001,0 c 9.89997,0 18.00005,8.1 18.00005,18.0001 0,9.8999 -8.10008,17.9999 -18.00005,17.9999 -9.90003,0 -18.00001,-8.1 -18.00001,-17.9999 0,-9.9001 8.09998,-18.0001 18.00001,-18.0001 z m -36.00004,252.0001 -72.00003,-72.0001 25.37998,-25.3799 46.62005,46.4398 118.61997,-118.6199 25.38007,25.5601 z"
           inkscape:connector-curvature="0" />
      </g>
    </g>
    <g
       id="g2272"
       inkscape:export-filename="F:\GitHub\App-QDC\res\screen\android\screen-mdpi-portrait.png"
       inkscape:export-xdpi="95.999985"
       inkscape:export-ydpi="95.999985">
      <g
         transform="matrix(0,1.2631579,-0.84210526,0,-932.29372,1984.5511)"
         id="g2527">
        <g
           id="g2525">
          <rect
             ry="0"
             y="2379.3979"
             x="1497.573"
             height="380"
             width="380"
             id="rect2523"
             style="fill:#f9f9f9;fill-opacity:1;stroke:none;stroke-width:0.73211336;stroke-miterlimit:4;stroke-dasharray:none;stroke-dashoffset:0;stroke-opacity:1" />
        </g>
      </g>
      <g
         transform="matrix(0.47222218,0,0,0.47222218,-2924.6112,3045.0944)"
         id="g2262">
        <g
           style="fill:none;stroke:none"
           transform="matrix(0.94736842,0,0,0.94736842,-1961.6885,-165.89551)"
           id="g2258">
          <g
             style="fill:none;stroke:none"
             id="g2256">
            <rect
               ry="0"
               y="2379.3979"
               x="1497.573"
               height="380"
               width="380"
               id="rect2254"
               style="fill:none;fill-opacity:1;stroke:none;stroke-width:0.73211336;stroke-miterlimit:4;stroke-dasharray:none;stroke-dashoffset:0;stroke-opacity:1" />
          </g>
        </g>
        <path
           inkscape:connector-curvature="0"
           d="m -236.93505,2124.271 h -75.23998 c -7.56,-20.88 -27.36009,-36 -50.76003,-36 -23.40001,0 -43.20004,15.12 -50.76003,36 h -75.23997 c -19.79997,0 -36.00009,16.2 -36.00009,36 v 252.0001 c 0,19.8001 16.20012,35.9999 36.00009,35.9999 h 252.00001 c 19.80001,0 35.99993,-16.1998 35.99993,-35.9999 V 2160.271 c 0,-19.8 -16.19992,-36 -35.99993,-36 z m -126.00001,0 c 9.89997,0 18.00005,8.1 18.00005,18.0001 0,9.8999 -8.10008,17.9999 -18.00005,17.9999 -9.90003,0 -18.00001,-8.1 -18.00001,-17.9999 0,-9.9001 8.09998,-18.0001 18.00001,-18.0001 z m -36.00004,252.0001 -72.00003,-72.0001 25.37998,-25.3799 46.62005,46.4398 118.61997,-118.6199 25.38007,25.5601 z"
           id="path2260"
           style="fill:#6ab04c;fill-opacity:1;stroke-width:18.00000381"
           clip-path="none"
           mask="none"
           inkscape:export-xdpi="38.26561"
           inkscape:export-ydpi="38.26561" />
      </g>
    </g>
    <g
       id="g2344"
       inkscape:export-filename="F:\GitHub\App-QDC\res\screen\android\screen-xhdpi-portrait.png"
       inkscape:export-xdpi="95.999985"
       inkscape:export-ydpi="95.999985">
      <g
         id="g2602"
         transform="matrix(0,3.3684211,-1.8947368,0,1918.6625,-157.8152)">
        <g
           id="g2600">
          <rect
             style="fill:#f9f9f9;fill-opacity:1;stroke:none;stroke-width:0.73211336;stroke-miterlimit:4;stroke-dasharray:none;stroke-dashoffset:0;stroke-opacity:1"
             id="rect2598"
             width="380"
             height="380"
             x="1497.573"
             y="2379.3979"
             ry="0" />
        </g>
      </g>
      <g
         id="g2314"
         transform="matrix(1.0833332,0,0,1.0833332,-2556.4907,3069.348)">
        <g
           id="g2310"
           transform="matrix(0.94736842,0,0,0.94736842,-1961.6885,-165.89551)"
           style="fill:none;stroke:none">
          <g
             id="g2308"
             style="fill:none;stroke:none">
            <rect
               style="fill:none;fill-opacity:1;stroke:none;stroke-width:0.73211336;stroke-miterlimit:4;stroke-dasharray:none;stroke-dashoffset:0;stroke-opacity:1"
               id="rect2306"
               width="380"
               height="380"
               x="1497.573"
               y="2379.3979"
               ry="0" />
          </g>
        </g>
        <path
           inkscape:export-ydpi="38.26561"
           inkscape:export-xdpi="38.26561"
           mask="none"
           clip-path="none"
           style="fill:#6ab04c;fill-opacity:1;stroke-width:18.00000381"
           id="path2312"
           d="m -236.93505,2124.271 h -75.23998 c -7.56,-20.88 -27.36009,-36 -50.76003,-36 -23.40001,0 -43.20004,15.12 -50.76003,36 h -75.23997 c -19.79997,0 -36.00009,16.2 -36.00009,36 v 252.0001 c 0,19.8001 16.20012,35.9999 36.00009,35.9999 h 252.00001 c 19.80001,0 35.99993,-16.1998 35.99993,-35.9999 V 2160.271 c 0,-19.8 -16.19992,-36 -35.99993,-36 z m -126.00001,0 c 9.89997,0 18.00005,8.1 18.00005,18.0001 0,9.8999 -8.10008,17.9999 -18.00005,17.9999 -9.90003,0 -18.00001,-8.1 -18.00001,-17.9999 0,-9.9001 8.09998,-18.0001 18.00001,-18.0001 z m -36.00004,252.0001 -72.00003,-72.0001 25.37998,-25.3799 46.62005,46.4398 118.61997,-118.6199 25.38007,25.5601 z"
           inkscape:connector-curvature="0" />
      </g>
    </g>
    <g
       id="g2324"
       transform="matrix(1.4222221,0,0,1.4222221,-1872.0416,4687.8669)"
       inkscape:export-xdpi="96"
       inkscape:export-ydpi="96">
      <g
         id="g2320"
         transform="matrix(0.94736842,0,0,0.94736842,-1961.6885,-165.89551)"
         style="fill:none;stroke:none">
        <g
           id="g2318"
           style="fill:none;stroke:none">
          <rect
             style="fill:none;fill-opacity:1;stroke:none;stroke-width:0.73211336;stroke-miterlimit:4;stroke-dasharray:none;stroke-dashoffset:0;stroke-opacity:1"
             id="rect2316"
             width="380"
             height="380"
             x="1497.573"
             y="2379.3979"
             ry="0" />
        </g>
      </g>
      <path
         inkscape:export-ydpi="38.26561"
         inkscape:export-xdpi="38.26561"
         mask="none"
         clip-path="none"
         style="fill:#6ab04c;fill-opacity:1;stroke-width:18.00000381"
         id="path2322"
         d="m -236.93505,2124.271 h -75.23998 c -7.56,-20.88 -27.36009,-36 -50.76003,-36 -23.40001,0 -43.20004,15.12 -50.76003,36 h -75.23997 c -19.79997,0 -36.00009,16.2 -36.00009,36 v 252.0001 c 0,19.8001 16.20012,35.9999 36.00009,35.9999 h 252.00001 c 19.80001,0 35.99993,-16.1998 35.99993,-35.9999 V 2160.271 c 0,-19.8 -16.19992,-36 -35.99993,-36 z m -126.00001,0 c 9.89997,0 18.00005,8.1 18.00005,18.0001 0,9.8999 -8.10008,17.9999 -18.00005,17.9999 -9.90003,0 -18.00001,-8.1 -18.00001,-17.9999 0,-9.9001 8.09998,-18.0001 18.00001,-18.0001 z m -36.00004,252.0001 -72.00003,-72.0001 25.37998,-25.3799 46.62005,46.4398 118.61997,-118.6199 25.38007,25.5601 z"
         inkscape:connector-curvature="0" />
    </g>
    <g
       id="g2382"
       inkscape:export-xdpi="96"
       inkscape:export-ydpi="96">
      <g
         id="g2021"
         transform="matrix(2.6947368,0,0,1.3157895,-8076.6963,4526.6043)">
        <g
           id="g2019">
          <rect
             style="fill:#f9f9f9;fill-opacity:1;stroke:none;stroke-width:0.73211336;stroke-miterlimit:4;stroke-dasharray:none;stroke-dashoffset:0;stroke-opacity:1"
             id="rect2017"
             width="380"
             height="380"
             x="1497.573"
             y="2379.3979"
             ry="0" />
        </g>
      </g>
      <g
         id="g2372"
         transform="matrix(0.7777777,0,0,0.7777777,-3246.8484,6143.1806)">
        <g
           id="g2368"
           transform="matrix(0.94736842,0,0,0.94736842,-1961.6885,-165.89551)"
           style="fill:none;stroke:none">
          <g
             id="g2366"
             style="fill:none;stroke:none">
            <rect
               style="fill:none;fill-opacity:1;stroke:none;stroke-width:0.73211336;stroke-miterlimit:4;stroke-dasharray:none;stroke-dashoffset:0;stroke-opacity:1"
               id="rect2364"
               width="380"
               height="380"
               x="1497.573"
               y="2379.3979"
               ry="0" />
          </g>
        </g>
        <path
           inkscape:export-ydpi="38.26561"
           inkscape:export-xdpi="38.26561"
           mask="none"
           clip-path="none"
           style="fill:#6ab04c;fill-opacity:1;stroke-width:18.00000381"
           id="path2370"
           d="m -236.93505,2124.271 h -75.23998 c -7.56,-20.88 -27.36009,-36 -50.76003,-36 -23.40001,0 -43.20004,15.12 -50.76003,36 h -75.23997 c -19.79997,0 -36.00009,16.2 -36.00009,36 v 252.0001 c 0,19.8001 16.20012,35.9999 36.00009,35.9999 h 252.00001 c 19.80001,0 35.99993,-16.1998 35.99993,-35.9999 V 2160.271 c 0,-19.8 -16.19992,-36 -35.99993,-36 z m -126.00001,0 c 9.89997,0 18.00005,8.1 18.00005,18.0001 0,9.8999 -8.10008,17.9999 -18.00005,17.9999 -9.90003,0 -18.00001,-8.1 -18.00001,-17.9999 0,-9.9001 8.09998,-18.0001 18.00001,-18.0001 z m -36.00004,252.0001 -72.00003,-72.0001 25.37998,-25.3799 46.62005,46.4398 118.61997,-118.6199 25.38007,25.5601 z"
           inkscape:connector-curvature="0" />
      </g>
    </g>
  </g>
</svg>
